<svg xmlns="http://www.w3.org/2000/svg" viewBox="0 0 631.46 897.3"><title>720Asset 5</title><g id="Layer_2" data-name="Layer 2"><g id="Layer_1-2" data-name="Layer 1"><path d="M12.5,455.08s70.21,69.19,303.2,69.19c251.57,0,303.26-69.19,303.26-69.19S602.09,741.91,315.73,732.87C25.73,723.71,12.5,455.08,12.5,455.08Z" style="fill:none;stroke:#ffce40;stroke-linecap:round;stroke-linejoin:round;stroke-width:45px"/><ellipse cx="315.73" cy="396.58" rx="303.23" ry="74.69" style="fill:none;stroke:#ffce40;stroke-linecap:round;stroke-linejoin:round;stroke-width:45px"/><polygon points="154.85 371.7 184.05 365.07 205.34 431.81 171.44 424.79 154.85 371.7" style="fill:#ffce40;stroke:#ffce40;stroke-linecap:round;stroke-linejoin:round;stroke-width:0.5px"/><polygon points="218.56 367.95 242.45 438.95 272.14 437.24 247.46 358.48 218.56 367.95" style="fill:#ffce40;stroke:#ffce40;stroke-linecap:round;stroke-linejoin:round;stroke-width:0.5px"/><path d="M137.6,421.47,123,372.37s-42.54,12.45-41.81,24.55C82.12,412.27,137.6,421.47,137.6,421.47Z" style="fill:#ffce40;stroke:#ffce40;stroke-linecap:round;stroke-linejoin:round;stroke-width:0.5px"/><polygon points="284.92 363.97 308.81 444.26 341.99 438.06 313.46 354.97 284.92 363.97" style="fill:#ffce40;stroke:#ffce40;stroke-linecap:round;stroke-linejoin:round;stroke-width:0.5px"/><polygon points="350.62 354.45 376.5 436.31 410.38 432.36 381.81 354.45 350.62 354.45" style="fill:#ffce40;stroke:#ffce40;stroke-linecap:round;stroke-linejoin:round;stroke-width:0.5px"/><polygon points="440.65 427.78 419.6 358.13 451.49 361.08 473.39 421.47 440.65 427.78" style="fill:#ffce40;stroke:#ffce40;stroke-linecap:round;stroke-linejoin:round;stroke-width:0.5px"/><path d="M505.24,417.49,484,365.07s62.23,11.25,63,28.53C547.61,405.63,505.24,417.49,505.24,417.49Z" style="fill:#ffce40;stroke:#ffce40;stroke-linecap:round;stroke-linejoin:round;stroke-width:0.5px"/><path d="M319.33,31.27S331.48,78.06,331,91c-.75,20.72-30.16,71.79-30.16,71.79s-18.87,26-11.47,77.83c3,21.11,30.77,51.88,30.77,51.88S307.48,253.88,309.29,231c1.4-17.7,15.09-57.92,15.09-57.92s34.68-56.71,22.32-92.3C341.14,64.76,319.33,31.27,319.33,31.27Z" style="fill:none;stroke:#ffce40;stroke-miterlimit:10;stroke-width:11px"/><path d="M386.94,103.06s7.64,32.2,7.35,41.1c-.48,14.26-19,49.41-19,49.41s-11.87,17.87-7.21,53.56c1.89,14.53,19.35,35.71,19.35,35.71s-8-26.57-6.83-42.35c.88-12.18,9.49-39.86,9.49-39.86s21.83-39,14.05-63.53C400.66,126.11,386.94,103.06,386.94,103.06Z" style="fill:none;stroke:#ffce40;stroke-miterlimit:10;stroke-width:11px"/><path d="M245.1,54.19s7.64,32.2,7.35,41.11c-.48,14.25-19,49.41-19,49.41s-11.88,17.86-7.21,53.56c1.89,14.53,19.35,35.7,19.35,35.7s-8-26.57-6.83-42.35c.88-12.18,9.49-39.86,9.49-39.86s21.83-39,14-63.52C258.82,77.24,245.1,54.19,245.1,54.19Z" style="fill:none;stroke:#ffce40;stroke-miterlimit:10;stroke-width:11px"/><line x1="194.31" y1="709.77" x2="110.89" y2="891.59" style="stroke:#ffce40;stroke-linejoin:round;stroke-width:45px"/><line x1="429.99" y1="718.04" x2="519.05" y2="891.59" style="stroke:#ffce40;stroke-linejoin:round;stroke-width:45px"/><line x1="150.7" y1="804.82" x2="474.52" y2="804.82" style="stroke:#ffce40;stroke-miterlimit:10;stroke-width:45px"/></g></g></svg>